# Rhino

mtllib beak.mtl
usemtl diffuse_Black
v 15 0 0
v 11 2 -1
v 7 4 -2
v 15 0 0
v 11 1.4437088966369629 -1.7075433731079102
v 7 2.8874177932739258 -3.4150867462158203
v 15 0 0
v 11 0.68612515926361084 -2.1281993389129639
v 7 1.3722503185272217 -4.2563986778259277
v 15 0 0
v 11 -0.1695232093334198 -2.2296326160430908
v 7 -0.3390464186668396 -4.4592652320861816
v 15 0 0
v 11 -1 -2
v 7 -2 -4
v 15 0 0
v 11 -1.7075433731079102 -1.4437088966369629
v 7 -3.4150867462158203 -2.8874177932739258
v 15 0 0
v 11 -2.1281993389129639 -0.68612515926361084
v 7 -4.2563986778259277 -1.3722503185272217
v 15 0 0
v 11 -2.2296326160430908 0.1695232093334198
v 7 -4.4592652320861816 0.3390464186668396
v 15 0 0
v 11 -2 1
v 7 -4 2
v 15 0 0
v 11 -1.4437088966369629 1.7075433731079102
v 7 -2.8874177932739258 3.4150867462158203
v 15 0 0
v 11 -0.68612515926361084 2.1281993389129639
v 7 -1.3722503185272217 4.2563986778259277
v 15 0 0
v 11 0.1695232093334198 2.2296326160430908
v 7 0.3390464186668396 4.4592652320861816
v 15 0 0
v 11 1 2
v 7 2 4
v 15 0 0
v 11 1.7075433731079102 1.4437088966369629
v 7 3.4150867462158203 2.8874177932739258
v 15 0 0
v 11 2.1281993389129639 0.68612515926361084
v 7 4.2563986778259277 1.3722503185272217
v 15 0 0
v 11 2.2296326160430908 -0.1695232093334198
v 7 4.4592652320861816 -0.3390464186668396
v 15 0 0
v 11 2 -1
v 7 4 -2
v 7 4 -2
v 7 2.8874177932739258 -3.4150867462158203
v 7 1.3722503185272217 -4.2563986778259277
v 7 -0.3390464186668396 -4.4592652320861816
v 7 -2 -4
v 7 -3.4150867462158203 -2.8874177932739258
v 7 -4.2563986778259277 -1.3722503185272217
v 7 -4.4592652320861816 0.3390464186668396
v 7 -4 2
v 7 -2.8874177932739258 3.4150867462158203
v 7 -1.3722503185272217 4.2563986778259277
v 7 0.3390464186668396 4.4592652320861816
v 7 2 4
v 7 3.4150867462158203 2.8874177932739258
v 7 4.2563986778259277 1.3722503185272217
v 7 4.4592652320861816 -0.3390464186668396
vt 0.64300024509429932 0
vt 0.48065125942230225 0
vt 0.31830227375030518 0
vt 0.64300024509429932 0.06440773606300354
vt 0.48065125942230225 0.06440773606300354
vt 0.31830227375030518 0.06440773606300354
vt 0.64300024509429932 0.12638621032238007
vt 0.48065125942230225 0.12638621032238007
vt 0.31830227375030518 0.12638621032238007
vt 0.64300024509429932 0.18801000714302063
vt 0.48065125942230225 0.18801000714302063
vt 0.31830227375030518 0.18801000714302063
vt 0.64300024509429932 0.2496337890625
vt 0.48065125942230225 0.2496337890625
vt 0.31830227375030518 0.2496337890625
vt 0.64300024509429932 0.31404155492782593
vt 0.48065125942230225 0.31404155492782593
vt 0.31830227375030518 0.31404155492782593
vt 0.64300024509429932 0.37602001428604126
vt 0.48065125942230225 0.37602001428604126
vt 0.31830227375030518 0.37602001428604126
vt 0.64300024509429932 0.43764376640319824
vt 0.48065125942230225 0.43764376640319824
vt 0.31830227375030518 0.43764376640319824
vt 0.64300024509429932 0.499267578125
vt 0.48065125942230225 0.499267578125
vt 0.31830227375030518 0.499267578125
vt 0.64300024509429932 0.56367534399032593
vt 0.48065125942230225 0.56367534399032593
vt 0.31830227375030518 0.56367534399032593
vt 0.64300024509429932 0.62565374374389648
vt 0.48065125942230225 0.62565374374389648
vt 0.31830227375030518 0.62565374374389648
vt 0.64300024509429932 0.68727761507034302
vt 0.48065125942230225 0.68727761507034302
vt 0.31830227375030518 0.68727761507034302
vt 0.64300024509429932 0.7489013671875
vt 0.48065125942230225 0.7489013671875
vt 0.31830227375030518 0.7489013671875
vt 0.64300024509429932 0.81330913305282593
vt 0.48065125942230225 0.81330913305282593
vt 0.31830227375030518 0.81330913305282593
vt 0.64300024509429932 0.87528753280639648
vt 0.48065125942230225 0.87528753280639648
vt 0.31830227375030518 0.87528753280639648
vt 0.64300024509429932 0.93691140413284302
vt 0.48065125942230225 0.93691140413284302
vt 0.31830227375030518 0.93691140413284302
vt 0.64300024509429932 0.99853515625
vt 0.48065125942230225 0.99853515625
vt 0.31830227375030518 0.99853515625
vt 0.31683743000030518 0.15915113687515259
vt 0.30400431156158447 0.22190055251121521
vt 0.26932606101036072 0.27279376983642578
vt 0.21831956505775452 0.30648654699325562
vt 0.15841871500015259 0.31830227375030518
vt 0.09595809131860733 0.30540981888771057
vt 0.045299094170331955 0.2705712616443634
vt 0.011761368252336979 0.21932892501354218
vt 0 0.15915113687515259
vt 0.012833142653107643 0.09640173614025116
vt 0.047511368989944458 0.045508526265621185
vt 0.098517864942550659 0.011815744452178478
vt 0.15841871500015259 0
vt 0.22087934613227844 0.012892474420368671
vt 0.27153834700584412 0.047731030732393265
vt 0.30507609248161316 0.098973348736763
vn 0.48795002698898315 0.780720055103302 -0.390360027551651
vn 0.48795002698898315 0.780720055103302 -0.390360027551651
vn 0.48795002698898315 0.780720055103302 -0.390360027551651
vn 0.48795002698898315 0.56356626749038696 -0.666556715965271
vn 0.48795002698898315 0.56356626749038696 -0.666556715965271
vn 0.48795002698898315 0.56356626749038696 -0.666556715965271
vn 0.48795002698898315 0.2678358256816864 -0.83076393604278564
vn 0.48795002698898315 0.2678358256816864 -0.83076393604278564
vn 0.48795002698898315 0.2678358256816864 -0.83076393604278564
vn 0.48795002698898315 -0.066175088286399841 -0.87035948038101196
vn 0.48795002698898315 -0.066175088286399841 -0.87035948038101196
vn 0.48795002698898315 -0.066175088286399841 -0.87035948038101196
vn 0.48795002698898315 -0.390360027551651 -0.780720055103302
vn 0.48795002698898315 -0.390360027551651 -0.780720055103302
vn 0.48795002698898315 -0.390360027551651 -0.780720055103302
vn 0.48795002698898315 -0.666556715965271 -0.56356626749038696
vn 0.48795002698898315 -0.666556715965271 -0.56356626749038696
vn 0.48795002698898315 -0.666556715965271 -0.56356626749038696
vn 0.48795002698898315 -0.83076393604278564 -0.2678358256816864
vn 0.48795002698898315 -0.83076393604278564 -0.2678358256816864
vn 0.48795002698898315 -0.83076393604278564 -0.2678358256816864
vn 0.48795002698898315 -0.87035948038101196 0.066175088286399841
vn 0.48795002698898315 -0.87035948038101196 0.066175088286399841
vn 0.48795002698898315 -0.87035948038101196 0.066175088286399841
vn 0.48795002698898315 -0.780720055103302 0.390360027551651
vn 0.48795002698898315 -0.780720055103302 0.390360027551651
vn 0.48795002698898315 -0.780720055103302 0.390360027551651
vn 0.48795002698898315 -0.56356626749038696 0.666556715965271
vn 0.48795002698898315 -0.56356626749038696 0.666556715965271
vn 0.48795002698898315 -0.56356626749038696 0.666556715965271
vn 0.48795002698898315 -0.2678358256816864 0.83076393604278564
vn 0.48795002698898315 -0.2678358256816864 0.83076393604278564
vn 0.48795002698898315 -0.2678358256816864 0.83076393604278564
vn 0.48795002698898315 0.066175088286399841 0.87035948038101196
vn 0.48795002698898315 0.066175088286399841 0.87035948038101196
vn 0.48795002698898315 0.066175088286399841 0.87035948038101196
vn 0.48795002698898315 0.390360027551651 0.780720055103302
vn 0.48795002698898315 0.390360027551651 0.780720055103302
vn 0.48795002698898315 0.390360027551651 0.780720055103302
vn 0.48795002698898315 0.666556715965271 0.56356626749038696
vn 0.48795002698898315 0.666556715965271 0.56356626749038696
vn 0.48795002698898315 0.666556715965271 0.56356626749038696
vn 0.48795002698898315 0.83076393604278564 0.2678358256816864
vn 0.48795002698898315 0.83076393604278564 0.2678358256816864
vn 0.48795002698898315 0.83076393604278564 0.2678358256816864
vn 0.48795002698898315 0.87035948038101196 -0.066175088286399841
vn 0.48795002698898315 0.87035948038101196 -0.066175088286399841
vn 0.48795002698898315 0.87035948038101196 -0.066175088286399841
vn 0.48795002698898315 0.780720055103302 -0.390360027551651
vn 0.48795002698898315 0.780720055103302 -0.390360027551651
vn 0.48795002698898315 0.780720055103302 -0.390360027551651
vn -1 0 0
vn -1 0 0
vn -1 0 0
vn -1 0 0
vn -1 0 0
vn -1 0 0
vn -1 0 0
vn -1 0 0
vn -1 0 0
vn -1 0 0
vn -1 0 0
vn -1 0 0
vn -1 0 0
vn -1 0 0
vn -1 0 0
vn -1 0 0
f 2/2/2 1/1/1 5/5/5 6/6/6 3/3/3
f 5/5/5 4/4/4 8/8/8 9/9/9 6/6/6
f 8/8/8 7/7/7 11/11/11 12/12/12 9/9/9
f 11/11/11 10/10/10 14/14/14 15/15/15 12/12/12
f 14/14/14 13/13/13 17/17/17 18/18/18 15/15/15
f 17/17/17 16/16/16 20/20/20 21/21/21 18/18/18
f 20/20/20 19/19/19 23/23/23 24/24/24 21/21/21
f 23/23/23 22/22/22 26/26/26 27/27/27 24/24/24
f 26/26/26 25/25/25 29/29/29 30/30/30 27/27/27
f 29/29/29 28/28/28 32/32/32 33/33/33 30/30/30
f 32/32/32 31/31/31 35/35/35 36/36/36 33/33/33
f 35/35/35 34/34/34 38/38/38 39/39/39 36/36/36
f 38/38/38 37/37/37 41/41/41 42/42/42 39/39/39
f 41/41/41 40/40/40 44/44/44 45/45/45 42/42/42
f 44/44/44 43/43/43 47/47/47 48/48/48 45/45/45
f 47/47/47 46/46/46 50/50/50 51/51/51 48/48/48
f 61/61/61 62/62/62 63/63/63 64/64/64 65/65/65 66/66/66 67/67/67 52/52/52 53/53/53 54/54/54 55/55/55 56/56/56 57/57/57 58/58/58 59/59/59 60/60/60
