# Blender v3.0.1 OBJ File: ''
# www.blender.org
mtllib untitled.mtl
o beak
v 11.000000 1.443709 -1.707543
v 11.000000 2.000000 -1.000000
v 15.000000 0.000000 0.000000
v 11.000000 0.686126 -2.128199
v 15.000000 0.000000 0.000000
v 11.000000 -0.169523 -2.229633
v 15.000000 0.000000 0.000000
v 11.000000 -1.000000 -2.000000
v 15.000000 0.000000 0.000000
v 11.000000 -1.707543 -1.443709
v 15.000000 0.000000 0.000000
v 11.000000 -2.128199 -0.686126
v 15.000000 0.000000 0.000000
v 11.000000 -2.229633 0.169523
v 15.000000 0.000000 0.000000
v 11.000000 -2.000000 1.000000
v 15.000000 0.000000 0.000000
v 11.000000 -1.443709 1.707543
v 15.000000 0.000000 0.000000
v 11.000000 -0.686126 2.128199
v 15.000000 0.000000 0.000000
v 11.000000 0.169523 2.229633
v 15.000000 0.000000 0.000000
v 11.000000 1.000000 2.000000
v 15.000000 0.000000 0.000000
v 11.000000 1.707543 1.443709
v 15.000000 0.000000 0.000000
v 11.000000 2.128199 0.686126
v 15.000000 0.000000 0.000000
v 11.000000 2.229633 -0.169523
v 15.000000 0.000000 0.000000
v 11.000000 2.000000 -1.000000
v 15.000000 0.000000 0.000000
v 7.000000 2.887418 -3.415086
v 7.000000 4.000000 -1.999999
v 7.000000 -0.339046 -4.459265
v 7.000000 1.372251 -4.256399
v 7.000000 -3.415086 -2.887418
v 7.000000 -1.999999 -4.000000
v 7.000000 -4.459265 0.339046
v 7.000000 -4.256399 -1.372251
v 7.000000 -4.000000 1.999999
v 7.000000 -1.372251 4.256399
v 7.000000 -2.887418 3.415086
v 7.000000 1.999999 4.000000
v 7.000000 0.339046 4.459265
v 7.000000 4.256399 1.372251
v 7.000000 3.415086 2.887418
v 7.000000 4.000000 -1.999999
v 7.000000 4.459265 -0.339046
v 7.000000 -1.372251 4.256399
v 7.000000 -4.256399 -1.372251
v 7.000000 -2.887418 3.415086
v 7.000000 0.339046 4.459265
v 7.000000 -3.415086 -2.887418
v 7.000000 -1.999999 -4.000000
v 7.000000 -4.459265 0.339046
v 7.000000 -4.000000 1.999999
v 7.000000 1.999999 4.000000
v 7.000000 4.256399 1.372251
v 7.000000 1.372251 -4.256399
v 7.000000 3.415086 2.887418
v 7.000000 2.887418 -3.415086
v 7.000000 4.459265 -0.339046
v 7.000000 4.000000 -1.999999
v 7.000000 -0.339046 -4.459265
vt 0.480651 0.064408
vt 0.480651 0.000000
vt 0.643000 0.000000
vt 0.480651 0.126386
vt 0.643000 0.064408
vt 0.480651 0.188010
vt 0.643000 0.126386
vt 0.480651 0.249634
vt 0.643000 0.188010
vt 0.480651 0.314042
vt 0.643000 0.249634
vt 0.480651 0.376020
vt 0.643000 0.314042
vt 0.480651 0.437644
vt 0.643000 0.376020
vt 0.480651 0.499268
vt 0.643000 0.437644
vt 0.480651 0.563675
vt 0.643000 0.499268
vt 0.480651 0.625654
vt 0.643000 0.563675
vt 0.480651 0.687278
vt 0.643000 0.625654
vt 0.480651 0.748901
vt 0.643000 0.687278
vt 0.480651 0.813309
vt 0.643000 0.748901
vt 0.480651 0.875288
vt 0.643000 0.813309
vt 0.480651 0.936911
vt 0.643000 0.875288
vt 0.480651 0.998535
vt 0.643000 0.936911
vt 0.318302 0.064408
vt 0.318302 0.126386
vt 0.318302 0.314042
vt 0.318302 0.376020
vt 0.318302 0.249634
vt 0.318302 0.499268
vt 0.318302 0.625654
vt 0.318302 0.748901
vt 0.318302 0.875288
vt 0.318302 0.998535
vt 0.318302 0.813309
vt 0.318302 0.563675
vt 0.047511 0.045509
vt 0.045299 0.270571
vt 0.012833 0.096402
vt 0.098518 0.011816
vt 0.095958 0.305410
vt 0.158419 0.318302
vt 0.011761 0.219329
vt 0.000000 0.159151
vt 0.158419 0.000000
vt 0.271538 0.047731
vt 0.269326 0.272794
vt 0.220879 0.012892
vt 0.304004 0.221901
vt 0.305076 0.098973
vt 0.316837 0.159151
vt 0.218320 0.306487
vt 0.318302 0.000000
vt 0.318302 0.188010
vt 0.318302 0.437644
vt 0.318302 0.687278
vt 0.318302 0.936911
vn 0.4879 0.5636 -0.6665
vn 0.4879 0.7807 -0.3903
vn 0.4880 0.7807 -0.3903
vn 0.4879 0.2678 -0.8308
vn 0.4879 0.5636 -0.6666
vn 0.4880 -0.0662 -0.8704
vn 0.4880 0.2678 -0.8308
vn 0.4879 -0.3904 -0.7807
vn 0.4879 -0.6665 -0.5636
vn 0.4880 -0.3903 -0.7807
vn 0.4880 -0.8308 -0.2677
vn 0.4879 -0.6666 -0.5636
vn 0.4880 -0.8704 0.0662
vn 0.4880 -0.8308 -0.2678
vn 0.4879 -0.7807 0.3904
vn 0.4879 -0.5636 0.6665
vn 0.4880 -0.7807 0.3903
vn 0.4879 -0.2678 0.8308
vn 0.4879 -0.5636 0.6666
vn 0.4880 0.0662 0.8704
vn 0.4880 -0.2678 0.8308
vn 0.4879 0.3904 0.7807
vn 0.4879 0.6665 0.5636
vn 0.4880 0.3903 0.7807
vn 0.4880 0.8308 0.2677
vn 0.4879 0.6666 0.5636
vn 0.4880 0.8704 -0.0662
vn 0.4880 0.8308 0.2678
vn 0.4880 0.7807 -0.3904
vn 0.4880 0.2677 -0.8308
vn 0.4880 -0.3904 -0.7807
vn 0.4880 -0.7807 0.3904
vn 0.4880 -0.2677 0.8308
vn 0.4880 0.3904 0.7807
vn -1.0000 0.0000 0.0000
usemtl diffuse_Black
s 1
f 1/1/1 2/2/2 3/3/3
f 4/4/4 1/1/1 5/5/5
f 6/6/6 4/4/4 7/7/7
f 8/8/8 6/6/6 9/9/6
f 10/10/9 8/8/8 11/11/10
f 12/12/11 10/10/9 13/13/12
f 14/14/13 12/12/11 15/15/14
f 16/16/15 14/14/13 17/17/13
f 18/18/16 16/16/15 19/19/17
f 20/20/18 18/18/16 21/21/19
f 22/22/20 20/20/18 23/23/21
f 24/24/22 22/22/20 25/25/20
f 26/26/23 24/24/22 27/27/24
f 28/28/25 26/26/23 29/29/26
f 30/30/27 28/28/25 31/31/28
f 32/32/29 30/30/27 33/33/27
f 34/34/1 2/2/2 1/1/1
f 6/6/6 37/35/30 4/4/4
f 37/35/30 1/1/1 4/4/4
f 38/36/9 8/8/8 10/10/9
f 14/14/13 41/37/11 12/12/11
f 41/37/11 10/10/9 12/12/11
f 39/38/31 6/6/6 8/8/8
f 42/39/32 14/14/13 16/16/15
f 43/40/33 18/18/16 20/20/18
f 45/41/34 22/22/20 24/24/22
f 22/22/20 43/40/33 20/20/18
f 47/42/25 26/26/23 28/28/25
f 49/43/29 30/30/27 32/32/29
f 30/30/27 47/42/25 28/28/25
f 48/44/23 24/24/22 26/26/23
f 44/45/16 16/16/15 18/18/16
f 51/46/35 52/47/35 53/48/35
f 54/49/35 55/50/35 51/46/35
f 54/49/35 56/51/35 55/50/35
f 57/52/35 58/53/35 53/48/35
f 52/47/35 57/52/35 53/48/35
f 52/47/35 51/46/35 55/50/35
f 56/51/35 54/49/35 59/54/35
f 60/55/35 61/56/35 62/57/35
f 63/58/35 60/55/35 64/59/35
f 64/59/35 65/60/35 63/58/35
f 56/51/35 59/54/35 66/61/35
f 62/57/35 61/56/35 66/61/35
f 60/55/35 63/58/35 61/56/35
f 62/57/35 66/61/35 59/54/35
f 34/34/1 35/62/3 2/2/2
f 6/6/6 36/63/6 37/35/30
f 37/35/30 34/34/1 1/1/1
f 38/36/9 39/38/31 8/8/8
f 14/14/13 40/64/13 41/37/11
f 41/37/11 38/36/9 10/10/9
f 39/38/31 36/63/6 6/6/6
f 42/39/32 40/64/13 14/14/13
f 43/40/33 44/45/16 18/18/16
f 45/41/34 46/65/20 22/22/20
f 22/22/20 46/65/20 43/40/33
f 47/42/25 48/44/23 26/26/23
f 49/43/29 50/66/27 30/30/27
f 30/30/27 50/66/27 47/42/25
f 48/44/23 45/41/34 24/24/22
f 44/45/16 42/39/32 16/16/15
