# Blender v2.93.5 OBJ File: ''
# www.blender.org
o life
v 0.000000 0.643976 2.474344
v 0.000000 1.000000 -0.000000
v 0.000000 0.027369 2.362651
v 0.000000 -0.509354 2.029499
v -0.000000 -0.964908 1.581525
v -0.000000 -1.350229 1.085390
v -0.000000 -1.350999 -1.084282
v -0.000000 -1.692209 0.553654
v 0.000000 1.773764 1.966720
v 0.000000 1.553404 0.316868
v 0.000000 1.266735 2.327719
v 0.000000 2.045550 1.401243
v 0.000000 1.970347 0.809460
v -0.000000 -1.692219 -0.553638
v -0.000000 -2.000000 0.000000
v -0.000000 -0.961654 -1.585231
v -0.000000 0.027057 -2.362521
v -0.000000 -0.510193 -2.028808
v -0.000000 0.640527 -2.474476
v 0.000000 1.962381 -0.792837
v 0.000000 1.772503 -1.968143
v 0.000000 1.555843 -0.318763
v 0.000000 1.258714 -2.331250
v 0.000000 2.045663 -1.400570
v 1.000000 0.643976 2.474344
v 1.000000 0.027369 2.362651
v 1.000000 1.000000 -0.000000
v 1.000000 -0.509354 2.029499
v 1.000000 -0.964908 1.581525
v 1.000000 -1.350229 1.085390
v 1.000000 -1.692209 0.553654
v 1.000000 -1.350999 -1.084282
v 1.000000 1.773763 1.966720
v 1.000000 1.266735 2.327719
v 1.000000 1.553404 0.316868
v 1.000000 2.045550 1.401243
v 1.000000 1.970347 0.809460
v 1.000000 -1.692219 -0.553638
v 1.000000 -2.000000 -0.000000
v 1.000000 -0.961654 -1.585231
v 1.000000 0.027057 -2.362521
v 1.000000 -0.510193 -2.028808
v 1.000000 0.640527 -2.474476
v 1.000000 1.962381 -0.792837
v 1.000000 1.555843 -0.318763
v 1.000000 1.772503 -1.968143
v 1.000000 1.258714 -2.331250
v 1.000000 2.045663 -1.400570
v 0.500000 -2.000000 -0.000000
v -0.000000 -1.692209 0.553654
v -0.000000 -2.000000 0.000000
v -0.000000 -1.350229 1.085390
v 1.000000 -1.692209 0.553654
v 1.000000 -1.350229 1.085390
v 0.000000 -0.509354 2.029499
v -0.000000 -0.964908 1.581525
v 1.000000 -0.964908 1.581525
v 1.000000 -0.509354 2.029499
v 1.000000 0.027369 2.362651
v 1.000000 0.643976 2.474344
v 0.000000 0.643976 2.474344
v 0.000000 0.027369 2.362651
v 1.000000 -2.000000 -0.000000
v 0.000000 1.773764 1.966720
v 0.000000 1.266735 2.327719
v 1.000000 1.266735 2.327719
v 1.000000 1.773763 1.966720
v 0.000000 2.045550 1.401243
v 1.000000 2.045550 1.401243
v 0.000000 1.553404 0.316868
v 0.000000 1.970347 0.809460
v 1.000000 1.970347 0.809460
v 1.000000 1.553404 0.316868
v 0.500000 1.000000 -0.000000
v 0.000000 1.000000 -0.000000
v 1.000000 1.000000 -0.000000
v 0.500000 1.000000 -0.000000
v 0.000000 1.555843 -0.318763
v 0.000000 1.000000 -0.000000
v 0.000000 1.962381 -0.792837
v 1.000000 1.555843 -0.318763
v 1.000000 1.962381 -0.792837
v 0.000000 1.772503 -1.968143
v 0.000000 2.045663 -1.400570
v 1.000000 2.045663 -1.400570
v 1.000000 1.772503 -1.968143
v 1.000000 1.258714 -2.331250
v 1.000000 0.640527 -2.474476
v -0.000000 0.640527 -2.474476
v 0.000000 1.258714 -2.331250
v 1.000000 1.000000 -0.000000
v -0.000000 -0.510193 -2.028808
v -0.000000 0.027057 -2.362521
v 1.000000 0.027057 -2.362521
v 1.000000 -0.510193 -2.028808
v -0.000000 -0.961654 -1.585231
v 1.000000 -0.961654 -1.585231
v -0.000000 -1.692219 -0.553638
v -0.000000 -1.350999 -1.084282
v 1.000000 -1.350999 -1.084282
v 1.000000 -1.692219 -0.553638
v 0.500000 -2.000000 -0.000000
v -0.000000 -2.000000 0.000000
v 1.000000 -2.000000 -0.000000
vt 0.244682 0.827554
vt 0.546663 0.870983
vt 0.258313 0.752339
vt 0.298973 0.686868
vt 0.353646 0.631298
vt 0.414197 0.584296
vt 0.678994 0.584202
vt 0.479092 0.542580
vt 0.306635 0.965368
vt 0.507991 0.938488
vt 0.262577 0.903520
vt 0.375648 0.998521
vt 0.447872 0.989348
vt 0.614232 0.542579
vt 0.546663 0.505035
vt 0.740132 0.631695
vt 0.834997 0.752301
vt 0.794269 0.686765
vt 0.848660 0.827133
vt 0.643425 0.988376
vt 0.786865 0.965214
vt 0.585566 0.938786
vt 0.831180 0.902541
vt 0.717595 0.998535
vt 0.244682 0.327554
vt 0.258313 0.252339
vt 0.546663 0.370983
vt 0.298973 0.186868
vt 0.353646 0.131298
vt 0.414197 0.084296
vt 0.479092 0.042580
vt 0.678994 0.084202
vt 0.306635 0.465368
vt 0.262577 0.403520
vt 0.507991 0.438488
vt 0.375648 0.498521
vt 0.447872 0.489348
vt 0.614232 0.042579
vt 0.546663 0.005035
vt 0.740132 0.131695
vt 0.834997 0.252301
vt 0.794269 0.186765
vt 0.848660 0.327133
vt 0.643425 0.488376
vt 0.585566 0.438786
vt 0.786865 0.465214
vt 0.831180 0.402541
vt 0.717595 0.498535
vt 0.182779 0.000000
vt 0.243217 0.082058
vt 0.243217 0.000000
vt 0.122341 0.163957
vt 0.243217 0.163957
vt 0.243217 0.244045
vt 0.122341 0.321424
vt 0.243217 0.321424
vt 0.122341 0.471442
vt 0.243217 0.396909
vt 0.122341 0.396909
vt 0.122341 0.244045
vt 0.122341 0.000000
vt 0.122341 0.082058
vt 0.243217 0.544057
vt 0.122341 0.616802
vt 0.243217 0.616802
vt 0.122341 0.695729
vt 0.243217 0.695729
vt 0.243217 0.774264
vt 0.122341 0.854949
vt 0.243217 0.854949
vt 0.182779 0.930133
vt 0.243217 0.930133
vt 0.122341 0.774264
vt 0.243217 0.471442
vt 0.122341 0.544057
vt 0.122341 0.930133
vt 0.060438 0.000000
vt 0.120876 0.075551
vt 0.120876 0.000000
vt 0.000000 0.153482
vt 0.120876 0.153482
vt 0.120876 0.234316
vt 0.000000 0.313559
vt 0.120876 0.313559
vt 0.000000 0.459086
vt 0.120876 0.387064
vt 0.000000 0.387064
vt 0.000000 0.234316
vt 0.000000 0.000000
vt 0.000000 0.075551
vt 0.120876 0.533264
vt 0.000000 0.608837
vt 0.120876 0.608837
vt 0.000000 0.685473
vt 0.120876 0.685473
vt 0.120876 0.766350
vt 0.000000 0.848076
vt 0.120876 0.848076
vt 0.060438 0.930132
vt 0.120876 0.930132
vt 0.000000 0.766350
vt 0.120876 0.459086
vt 0.000000 0.533264
vt 0.000000 0.930132
vn -1.0000 0.0000 0.0000
vn 1.0000 -0.0000 -0.0000
vn -0.0000 -0.8935 0.4490
vn -0.0000 -0.8564 0.5163
vn 0.0000 -0.8211 0.5708
vn 0.0000 -0.7518 0.6594
vn 0.0000 -0.6356 0.7720
vn 0.0000 0.0394 0.9992
vn -0.0000 -0.3834 0.9236
vn -0.0000 0.4053 0.9142
vn -0.0000 0.7493 0.6623
vn -0.0000 0.9860 0.1666
vn 0.0000 0.9058 -0.4237
vn 0.0000 0.6128 -0.7902
vn 0.0000 0.6128 -0.7903
vn 0.0000 0.3848 -0.9230
vn 0.0000 0.9058 -0.4236
vn -0.0000 0.0395 0.9992
vn -0.0000 0.3848 0.9230
vn 0.0000 0.6141 0.7892
vn 0.0000 0.8979 0.4403
vn 0.0000 0.8979 0.4402
vn 0.0000 0.9861 -0.1660
vn 0.0000 0.7482 -0.6635
vn -0.0000 0.0372 -0.9993
vn 0.0000 0.4006 -0.9162
vn 0.0000 0.6140 0.7893
vn 0.0000 -0.3836 -0.9235
vn 0.0000 -0.6359 -0.7718
vn -0.0000 -0.7511 -0.6602
vn -0.0000 -0.8212 -0.5706
vn -0.0000 -0.8564 -0.5163
vn 0.0000 -0.8935 -0.4490
vn -0.0000 -0.3835 -0.9235
s 1
f 1/1/1 2/2/1 3/3/1
f 2/2/1 4/4/1 3/3/1
f 5/5/1 2/2/1 6/6/1
f 5/5/1 4/4/1 2/2/1
f 6/6/1 7/7/1 8/8/1
f 9/9/1 10/10/1 11/11/1
f 11/11/1 10/10/1 2/2/1
f 12/12/1 13/13/1 9/9/1
f 10/10/1 9/9/1 13/13/1
f 1/1/1 11/11/1 2/2/1
f 14/14/1 15/15/1 8/8/1
f 7/7/1 6/6/1 2/2/1
f 7/7/1 2/2/1 16/16/1
f 17/17/1 18/18/1 2/2/1
f 2/2/1 18/18/1 16/16/1
f 19/19/1 17/17/1 2/2/1
f 20/20/1 21/21/1 22/22/1
f 2/2/1 22/22/1 23/23/1
f 24/24/1 21/21/1 20/20/1
f 23/23/1 22/22/1 21/21/1
f 23/23/1 19/19/1 2/2/1
f 14/14/1 8/8/1 7/7/1
f 25/25/2 26/26/2 27/27/2
f 27/27/2 26/26/2 28/28/2
f 29/29/2 30/30/2 27/27/2
f 29/29/2 27/27/2 28/28/2
f 30/30/2 31/31/2 32/32/2
f 33/33/2 34/34/2 35/35/2
f 34/34/2 27/27/2 35/35/2
f 36/36/2 33/33/2 37/37/2
f 35/35/2 37/37/2 33/33/2
f 25/25/2 27/27/2 34/34/2
f 38/38/2 31/31/2 39/39/2
f 32/32/2 27/27/2 30/30/2
f 32/32/2 40/40/2 27/27/2
f 41/41/2 27/27/2 42/42/2
f 27/27/2 40/40/2 42/42/2
f 43/43/2 27/27/2 41/41/2
f 44/44/2 45/45/2 46/46/2
f 27/27/2 47/47/2 45/45/2
f 48/48/2 44/44/2 46/46/2
f 47/47/2 46/46/2 45/45/2
f 47/47/2 27/27/2 43/43/2
f 38/38/2 32/32/2 31/31/2
f 49/49/3 50/50/4 51/51/3
f 50/50/4 54/52/5 52/53/5
f 56/54/6 58/55/7 55/56/7
f 60/57/8 62/58/9 59/59/9
f 55/56/7 59/59/9 62/58/9
f 52/53/5 57/60/6 56/54/6
f 63/61/3 53/62/4 49/49/3
f 53/62/4 50/50/4 49/49/3
f 65/63/10 67/64/11 64/65/11
f 64/65/11 69/66/12 68/67/12
f 71/68/13 73/69/14 70/70/15
f 70/70/15 74/71/16 75/72/16
f 68/67/12 72/73/17 71/68/13
f 74/71/16 70/70/15 73/69/14
f 61/74/18 66/75/10 65/63/10
f 74/71/16 73/69/14 76/76/16
f 77/77/19 78/78/20 79/79/19
f 78/78/20 82/80/21 80/81/22
f 84/82/23 86/83/24 83/84/24
f 88/85/25 90/86/26 87/87/26
f 83/84/24 87/87/26 90/86/26
f 80/81/22 85/88/23 84/82/23
f 91/89/19 81/90/27 77/77/19
f 81/90/27 78/78/20 77/77/19
f 93/91/28 95/92/29 92/93/29
f 92/93/29 97/94/30 96/95/30
f 99/96/31 101/97/32 98/98/32
f 98/98/32 102/99/33 103/100/33
f 96/95/30 100/101/31 99/96/31
f 102/99/33 98/98/32 101/97/32
f 89/102/25 94/103/34 93/91/28
f 102/99/33 101/97/32 104/104/33
f 50/50/4 53/62/4 54/52/5
f 56/54/6 57/60/6 58/55/7
f 60/57/8 61/74/18 62/58/9
f 55/56/7 58/55/7 59/59/9
f 52/53/5 54/52/5 57/60/6
f 65/63/10 66/75/10 67/64/11
f 64/65/11 67/64/11 69/66/12
f 71/68/13 72/73/17 73/69/14
f 68/67/12 69/66/12 72/73/17
f 61/74/18 60/57/8 66/75/10
f 78/78/20 81/90/27 82/80/21
f 84/82/23 85/88/23 86/83/24
f 88/85/25 89/102/25 90/86/26
f 83/84/24 86/83/24 87/87/26
f 80/81/22 82/80/21 85/88/23
f 93/91/28 94/103/34 95/92/29
f 92/93/29 95/92/29 97/94/30
f 99/96/31 100/101/31 101/97/32
f 96/95/30 97/94/30 100/101/31
f 89/102/25 88/85/25 94/103/34
