# Blender v3.0.1 OBJ File: ''
# www.blender.org
mtllib wheel.mtl
o wheel
v 2.969969 -7.854412 0.999999
v 2.741730 -9.569685 0.999998
v 3.726460 -9.179471 0.999999
v 3.789484 -8.484117 0.999999
v 2.157694 -7.245884 0.999999
v 1.396321 -6.538249 0.999999
v -1.379952 -6.519791 0.999999
v 1.250238 -10.848950 0.999998
v 1.903346 -10.079609 0.999998
v 0.759268 -11.735260 0.999998
v -0.766859 -11.719604 0.999998
v 1.481823 -0.769514 1.000000
v 1.567834 0.241234 1.000000
v 1.000000 1.000000 1.000000
v 1.210871 -1.750779 1.000000
v 0.853103 -5.701387 0.999999
v 0.643034 -4.737080 0.999999
v -0.845182 -5.681996 0.999999
v -0.934559 -2.689829 1.000000
v 0.925097 -2.724585 1.000000
v -0.008256 1.177812 1.000000
v 0.704843 -3.719489 0.999999
v -0.707766 -3.701159 0.999999
v -0.642024 -4.718415 0.999999
v 0.301302 -12.687682 0.999998
v -0.312173 -12.667964 0.999998
v -1.262899 -10.829751 0.999998
v -1.919795 -10.065503 0.999998
v -3.763154 -8.459963 0.999999
v -3.746639 -9.170202 0.999999
v -2.817963 -9.536462 0.999998
v -2.144912 -7.235572 0.999999
v -2.940433 -7.833165 0.999999
v -1.219846 -1.721052 1.000000
v -1.000000 1.000000 1.000000
v -1.559148 0.293209 1.000000
v -1.486678 -0.747877 1.000000
v 2.969969 -7.854412 -1.000001
v 3.726460 -9.179471 -1.000002
v 2.741730 -9.569685 -1.000002
v 3.789484 -8.484117 -1.000001
v 2.157694 -7.245884 -1.000001
v 1.396321 -6.538249 -1.000001
v 1.250238 -10.848950 -1.000002
v -1.379952 -6.519791 -1.000001
v 1.903346 -10.079609 -1.000002
v 0.759268 -11.735260 -1.000002
v -0.766859 -11.719604 -1.000002
v 1.481823 -0.769513 -1.000000
v 1.000000 1.000000 -1.000000
v 1.567834 0.241234 -1.000000
v 1.210871 -1.750779 -1.000000
v 0.853103 -5.701387 -1.000001
v -0.845182 -5.681996 -1.000001
v 0.643034 -4.737080 -1.000001
v 0.925097 -2.724584 -1.000000
v -0.934559 -2.689828 -1.000000
v -0.008256 1.177813 -1.000000
v 0.704843 -3.719488 -1.000001
v -0.707766 -3.701159 -1.000001
v -0.642024 -4.718415 -1.000001
v 0.301302 -12.687682 -1.000002
v -0.312173 -12.667964 -1.000002
v -1.262899 -10.829751 -1.000002
v -1.919795 -10.065503 -1.000002
v -3.763154 -8.459963 -1.000001
v -2.817963 -9.536462 -1.000002
v -3.746639 -9.170202 -1.000002
v -2.144912 -7.235572 -1.000001
v -2.940433 -7.833165 -1.000001
v -1.219846 -1.721052 -1.000000
v -1.000000 1.000000 -1.000000
v -1.559148 0.293209 -1.000000
v -1.486678 -0.747877 -1.000000
v -0.008256 1.177812 1.000000
v 1.000000 1.000000 1.000000
v 1.000000 1.000000 -1.000000
v -0.008256 1.177813 -1.000000
v -1.559148 0.293209 1.000000
v -1.000000 1.000000 1.000000
v -1.000000 1.000000 -1.000000
v -1.559148 0.293209 -1.000000
v -1.219846 -1.721052 1.000000
v -1.486678 -0.747877 1.000000
v -1.486678 -0.747877 -1.000000
v -1.219846 -1.721052 -1.000000
v -0.707766 -3.701159 0.999999
v -0.934559 -2.689829 1.000000
v -0.934559 -2.689828 -1.000000
v -0.707766 -3.701159 -1.000001
v -0.642024 -4.718415 0.999999
v -0.642024 -4.718415 -1.000001
v -1.379952 -6.519791 0.999999
v -0.845182 -5.681996 0.999999
v -0.845182 -5.681996 -1.000001
v -1.379952 -6.519791 -1.000001
v -2.940433 -7.833165 0.999999
v -2.144912 -7.235572 0.999999
v -2.144912 -7.235572 -1.000001
v -2.940433 -7.833165 -1.000001
v -3.763154 -8.459963 0.999999
v -3.763154 -8.459963 -1.000001
v -2.817963 -9.536462 0.999998
v -3.746639 -9.170202 0.999999
v -3.746639 -9.170202 -1.000002
v -2.817963 -9.536462 -1.000002
v -1.262899 -10.829751 0.999998
v -1.919795 -10.065503 0.999998
v -1.919795 -10.065503 -1.000002
v -1.262899 -10.829751 -1.000002
v -0.766859 -11.719604 0.999998
v -0.766859 -11.719604 -1.000002
v -0.312173 -12.667964 -1.000002
v -0.312173 -12.667964 0.999998
v 0.301302 -12.687682 0.999998
v 0.301302 -12.687682 -1.000002
v 1.250238 -10.848950 0.999998
v 0.759268 -11.735260 0.999998
v 0.759268 -11.735260 -1.000002
v 1.250238 -10.848950 -1.000002
v 2.741730 -9.569685 0.999998
v 1.903346 -10.079609 0.999998
v 1.903346 -10.079609 -1.000002
v 2.741730 -9.569685 -1.000002
v 3.789484 -8.484117 0.999999
v 3.726460 -9.179471 0.999999
v 3.726460 -9.179471 -1.000002
v 3.789484 -8.484117 -1.000001
v 2.969969 -7.854412 0.999999
v 2.969969 -7.854412 -1.000001
v 1.396321 -6.538249 0.999999
v 2.157694 -7.245884 0.999999
v 2.157694 -7.245884 -1.000001
v 1.396321 -6.538249 -1.000001
v 0.643034 -4.737080 0.999999
v 0.853103 -5.701387 0.999999
v 0.853103 -5.701387 -1.000001
v 0.643034 -4.737080 -1.000001
v 0.704843 -3.719489 0.999999
v 0.704843 -3.719488 -1.000001
v 1.210871 -1.750779 1.000000
v 0.925097 -2.724585 1.000000
v 0.925097 -2.724584 -1.000000
v 1.210871 -1.750779 -1.000000
v 1.567834 0.241234 1.000000
v 1.481823 -0.769514 1.000000
v 1.481823 -0.769513 -1.000000
v 1.567834 0.241234 -1.000000
v 1.000000 1.000000 1.000000
v 1.000000 1.000000 -1.000000
vt 0.021742 0.129168
vt 0.027798 0.083328
vt 0.001672 0.093756
vt 0.000000 0.112339
vt 0.043293 0.145431
vt 0.063492 0.164342
vt 0.137149 0.164835
vt 0.067368 0.049140
vt 0.050041 0.069700
vt 0.080394 0.025453
vt 0.120883 0.025872
vt 0.061224 0.318510
vt 0.058942 0.345522
vt 0.074007 0.365799
vt 0.068413 0.292286
vt 0.077904 0.186707
vt 0.083478 0.212478
vt 0.122961 0.187225
vt 0.125333 0.267190
vt 0.075994 0.266261
vt 0.100757 0.370551
vt 0.081838 0.239672
vt 0.119316 0.240162
vt 0.117571 0.212976
vt 0.092544 0.000000
vt 0.108820 0.000527
vt 0.134044 0.049653
vt 0.151472 0.070077
vt 0.200377 0.112985
vt 0.199939 0.094004
vt 0.175301 0.084215
vt 0.157444 0.145706
vt 0.178550 0.129736
vt 0.132901 0.293080
vt 0.127069 0.365799
vt 0.141903 0.346911
vt 0.139981 0.319088
vt 0.277034 0.129168
vt 0.256964 0.093756
vt 0.283089 0.083328
vt 0.255292 0.112339
vt 0.298584 0.145431
vt 0.318784 0.164342
vt 0.322660 0.049140
vt 0.392441 0.164835
vt 0.305332 0.069700
vt 0.335686 0.025453
vt 0.376175 0.025872
vt 0.316516 0.318510
vt 0.329299 0.365799
vt 0.314234 0.345522
vt 0.323704 0.292286
vt 0.333196 0.186707
vt 0.378253 0.187225
vt 0.338769 0.212478
vt 0.331286 0.266261
vt 0.380624 0.267190
vt 0.356049 0.370551
vt 0.337129 0.239672
vt 0.374607 0.240162
vt 0.372863 0.212976
vt 0.347836 0.000000
vt 0.364112 0.000527
vt 0.389335 0.049653
vt 0.406763 0.070077
vt 0.455669 0.112985
vt 0.430592 0.084215
vt 0.455231 0.094004
vt 0.412736 0.145706
vt 0.433841 0.129736
vt 0.388193 0.293080
vt 0.382360 0.365799
vt 0.397195 0.346911
vt 0.395272 0.319088
vt 0.253827 0.000000
vt 0.201842 0.027814
vt 0.253827 0.027814
vt 0.253827 0.055216
vt 0.201842 0.090034
vt 0.253827 0.090034
vt 0.201842 0.055216
vt 0.253827 0.122563
vt 0.201842 0.147573
vt 0.253827 0.147573
vt 0.253827 0.170413
vt 0.201842 0.193460
vt 0.253827 0.193460
vt 0.201842 0.216849
vt 0.253827 0.216849
vt 0.201842 0.170413
vt 0.201842 0.122563
vt 0.253827 0.240239
vt 0.201842 0.262782
vt 0.253827 0.262782
vt 0.253827 0.284781
vt 0.201842 0.306106
vt 0.253827 0.306106
vt 0.201842 0.333404
vt 0.253827 0.333404
vt 0.201842 0.284781
vt 0.253827 0.379264
vt 0.201842 0.406278
vt 0.253827 0.406278
vt 0.253827 0.429599
vt 0.201842 0.451371
vt 0.253827 0.451371
vt 0.201842 0.473718
vt 0.253827 0.473718
vt 0.201842 0.429599
vt 0.201842 0.379264
vt 0.201842 0.240239
vt 0.201842 0.502203
vt 0.253827 0.502203
vt 0.201842 0.550747
vt 0.253827 0.550747
vt 0.253827 0.579631
vt 0.201842 0.601888
vt 0.253827 0.601888
vt 0.201842 0.579631
vt 0.253827 0.623679
vt 0.201842 0.645554
vt 0.253827 0.645554
vt 0.253827 0.673710
vt 0.201842 0.719139
vt 0.253827 0.719139
vt 0.201842 0.746818
vt 0.253827 0.746818
vt 0.201842 0.673710
vt 0.201842 0.623679
vt 0.253827 0.768628
vt 0.201842 0.790438
vt 0.253827 0.790438
vt 0.253827 0.813019
vt 0.201842 0.836464
vt 0.253827 0.836464
vt 0.201842 0.859875
vt 0.253827 0.859875
vt 0.201842 0.813019
vt 0.253827 0.882539
vt 0.201842 0.905455
vt 0.253827 0.905455
vt 0.253827 0.930594
vt 0.201842 0.961815
vt 0.253827 0.961815
vt 0.201842 0.998535
vt 0.253827 0.998535
vt 0.201842 0.930594
vt 0.201842 0.882539
vt 0.201842 0.768628
vt 0.201842 0.000000
vn 0.0000 -0.0000 1.0000
vn 0.0000 0.0000 -1.0000
vn 0.4097 0.9122 -0.0000
vn -0.0022 1.0000 0.0000
vn -0.4111 0.9116 0.0000
vn -0.9825 0.1861 0.0000
vn -0.9826 0.1858 -0.0000
vn -0.4109 0.9117 -0.0000
vn -0.9761 -0.2171 -0.0000
vn -0.9574 -0.2888 -0.0000
vn -0.9646 -0.2638 -0.0000
vn -0.9873 -0.1589 -0.0000
vn -0.9987 0.0514 -0.0000
vn -0.9761 -0.2172 -0.0000
vn -0.9273 0.3744 -0.0000
vn -0.7500 0.6614 0.0000
vn -0.6285 0.7778 0.0000
vn -0.5841 0.8117 0.0000
vn -0.6747 0.7381 -0.0001
vn -0.6769 0.7361 0.0000
vn -0.4307 -0.9025 0.0002
vn -0.3930 -0.9195 -0.0000
vn -0.6479 -0.7617 0.0000
vn -0.8337 -0.5523 0.0000
vn -0.8995 -0.4368 0.0000
vn -0.4345 -0.9007 0.0000
vn -0.8739 -0.4861 -0.0000
vn -0.8710 -0.4912 0.0000
vn 0.8665 -0.4992 0.0000
vn 0.8697 -0.4936 0.0002
vn 0.9001 -0.4357 0.0000
vn 0.8361 -0.5486 0.0000
vn 0.6541 -0.7564 0.0000
vn 0.4060 -0.9139 -0.0000
vn 0.4243 -0.9055 -0.0000
vn 0.6882 0.7255 0.0000
vn 0.6858 0.7278 0.0000
vn 0.5839 0.8118 0.0000
vn 0.4199 -0.9076 0.0002
vn 0.6272 0.7788 -0.0000
vn 0.7462 0.6658 0.0000
vn 0.9242 0.3819 -0.0000
vn 0.9984 0.0565 -0.0000
vn 0.9877 -0.1562 -0.0000
vn 0.9652 -0.2616 -0.0000
vn 0.9573 -0.2892 -0.0000
vn 0.9754 -0.2205 -0.0000
vn 0.9891 0.1470 -0.0001
vn 0.9891 0.1471 0.0000
usemtl diffuse_Black.003
s 1
f 1/1/1 2/2/1 3/3/1
f 3/3/1 4/4/1 1/1/1
f 1/1/1 5/5/1 2/2/1
f 6/6/1 7/7/1 8/8/1
f 9/9/1 5/5/1 6/6/1
f 2/2/1 5/5/1 9/9/1
f 9/9/1 6/6/1 8/8/1
f 10/10/1 8/8/1 11/11/1
f 12/12/1 13/13/1 14/14/1
f 14/14/1 15/15/1 12/12/1
f 16/16/1 17/17/1 18/18/1
f 15/15/1 19/19/1 20/20/1
f 14/14/1 21/21/1 15/15/1
f 22/22/1 20/20/1 23/23/1
f 22/22/1 24/24/1 17/17/1
f 7/7/1 6/6/1 16/16/1
f 25/25/1 10/10/1 26/26/1
f 8/8/1 27/27/1 11/11/1
f 28/28/1 27/27/1 7/7/1
f 8/8/1 7/7/1 27/27/1
f 29/29/1 30/30/1 31/31/1
f 32/32/1 33/33/1 31/31/1
f 29/29/1 31/31/1 33/33/1
f 28/28/1 32/32/1 31/31/1
f 7/7/1 32/32/1 28/28/1
f 18/18/1 17/17/1 24/24/1
f 15/15/1 34/34/1 19/19/1
f 19/19/1 23/23/1 20/20/1
f 21/21/1 34/34/1 15/15/1
f 23/23/1 24/24/1 22/22/1
f 21/21/1 35/35/1 34/34/1
f 36/36/1 37/37/1 35/35/1
f 34/34/1 35/35/1 37/37/1
f 18/18/1 7/7/1 16/16/1
f 10/10/1 11/11/1 26/26/1
f 38/38/2 39/39/2 40/40/2
f 39/39/2 38/38/2 41/41/2
f 38/38/2 40/40/2 42/42/2
f 43/43/2 44/44/2 45/45/2
f 46/46/2 43/43/2 42/42/2
f 40/40/2 46/46/2 42/42/2
f 46/46/2 44/44/2 43/43/2
f 47/47/2 48/48/2 44/44/2
f 49/49/2 50/50/2 51/51/2
f 50/50/2 49/49/2 52/52/2
f 53/53/2 54/54/2 55/55/2
f 52/52/2 56/56/2 57/57/2
f 50/50/2 52/52/2 58/58/2
f 59/59/2 60/60/2 56/56/2
f 59/59/2 55/55/2 61/61/2
f 45/45/2 53/53/2 43/43/2
f 62/62/2 63/63/2 47/47/2
f 44/44/2 48/48/2 64/64/2
f 65/65/2 45/45/2 64/64/2
f 44/44/2 64/64/2 45/45/2
f 66/66/2 67/67/2 68/68/2
f 69/69/2 67/67/2 70/70/2
f 66/66/2 70/70/2 67/67/2
f 65/65/2 67/67/2 69/69/2
f 45/45/2 65/65/2 69/69/2
f 54/54/2 61/61/2 55/55/2
f 52/52/2 57/57/2 71/71/2
f 57/57/2 56/56/2 60/60/2
f 58/58/2 52/52/2 71/71/2
f 60/60/2 59/59/2 61/61/2
f 58/58/2 71/71/2 72/72/2
f 73/73/2 72/72/2 74/74/2
f 71/71/2 74/74/2 72/72/2
f 54/54/2 53/53/2 45/45/2
f 47/47/2 63/63/2 48/48/2
f 76/75/3 78/76/4 75/77/4
f 80/78/5 82/79/6 79/80/7
f 75/77/4 81/81/8 80/78/5
f 84/82/9 86/83/10 83/84/10
f 88/85/11 90/86/12 87/87/12
f 87/87/12 92/88/13 91/89/13
f 83/84/10 89/90/11 88/85/11
f 79/80/7 85/91/14 84/82/9
f 94/92/15 96/93/16 93/94/16
f 98/95/17 100/96/18 97/97/18
f 97/97/18 102/98/19 101/99/20
f 93/94/16 99/100/17 98/95/17
f 104/101/21 106/102/22 103/103/22
f 108/104/23 110/105/24 107/106/24
f 107/106/24 112/107/25 111/108/25
f 103/103/22 109/109/23 108/104/23
f 101/99/20 105/110/26 104/101/21
f 91/89/13 95/111/15 94/92/15
f 113/112/27 111/108/25 112/107/25
f 114/113/28 116/114/29 115/115/30
f 118/116/31 120/117/32 117/118/32
f 115/115/30 119/119/31 118/116/31
f 122/120/33 124/121/34 121/122/34
f 126/123/35 128/124/36 125/125/37
f 125/125/37 130/126/38 129/127/38
f 121/122/34 127/128/39 126/123/35
f 117/118/32 123/129/33 122/120/33
f 132/130/40 134/131/41 131/132/41
f 136/133/42 138/134/43 135/135/43
f 135/135/43 140/136/44 139/137/44
f 131/132/41 137/138/42 136/133/42
f 142/139/45 144/140/46 141/141/46
f 146/142/47 148/143/48 145/144/49
f 145/144/49 150/145/3 149/146/3
f 141/141/46 147/147/47 146/142/47
f 139/137/44 143/148/45 142/139/45
f 129/127/38 133/149/40 132/130/40
f 76/75/3 77/150/3 78/76/4
f 80/78/5 81/81/8 82/79/6
f 75/77/4 78/76/4 81/81/8
f 84/82/9 85/91/14 86/83/10
f 88/85/11 89/90/11 90/86/12
f 87/87/12 90/86/12 92/88/13
f 83/84/10 86/83/10 89/90/11
f 79/80/7 82/79/6 85/91/14
f 94/92/15 95/111/15 96/93/16
f 98/95/17 99/100/17 100/96/18
f 97/97/18 100/96/18 102/98/19
f 93/94/16 96/93/16 99/100/17
f 104/101/21 105/110/26 106/102/22
f 108/104/23 109/109/23 110/105/24
f 107/106/24 110/105/24 112/107/25
f 103/103/22 106/102/22 109/109/23
f 101/99/20 102/98/19 105/110/26
f 91/89/13 92/88/13 95/111/15
f 113/112/27 114/113/28 111/108/25
f 114/113/28 113/112/27 116/114/29
f 118/116/31 119/119/31 120/117/32
f 115/115/30 116/114/29 119/119/31
f 122/120/33 123/129/33 124/121/34
f 126/123/35 127/128/39 128/124/36
f 125/125/37 128/124/36 130/126/38
f 121/122/34 124/121/34 127/128/39
f 117/118/32 120/117/32 123/129/33
f 132/130/40 133/149/40 134/131/41
f 136/133/42 137/138/42 138/134/43
f 135/135/43 138/134/43 140/136/44
f 131/132/41 134/131/41 137/138/42
f 142/139/45 143/148/45 144/140/46
f 146/142/47 147/147/47 148/143/48
f 145/144/49 148/143/48 150/145/3
f 141/141/46 144/140/46 147/147/47
f 139/137/44 140/136/44 143/148/45
f 129/127/38 130/126/38 133/149/40
